<svg width="96" height="30" viewBox="0 0 96 30" fill="none" xmlns="http://www.w3.org/2000/svg">
<path d="M30.9903 29.4674C29.2013 28.7749 27.6773 27.4017 26.8432 25.5131C25.268 21.9457 26.4785 18.2786 30.0827 15.7027C32.3989 14.0475 32.8461 12.8868 32.2598 10.0604C31.3877 5.85298 33.0415 2.15442 36.4738 0.638269C40.2511 -1.03002 44.6815 0.685484 46.3511 4.46274C47.8686 7.89637 46.6003 11.7458 43.1221 14.2666C40.6551 16.0555 40.4505 17.6858 40.9318 19.8996C41.8446 24.0992 40.1921 27.8043 36.7204 29.3375C34.8305 30.1717 32.7792 30.1599 30.9903 29.4674ZM40.9593 3.71909C39.994 3.3453 38.8858 3.33874 37.8654 3.78992C37.1375 4.11125 34.8239 5.46476 35.6318 9.36137C36.4909 13.5032 35.4967 16.0673 32.0841 18.5055C30.7857 19.4327 28.7895 21.3961 29.9935 24.1215C30.8945 26.161 33.2868 27.0882 35.3262 26.1859C38.2418 24.898 37.7749 21.6086 37.5624 20.6302C36.706 16.6929 37.7972 13.8692 41.0984 11.4769C44.3195 9.14234 43.5208 6.58351 43.1981 5.85429C42.7496 4.83391 41.9259 4.09288 40.9593 3.71909Z" fill="#0064DA"/>
<path d="M4.48013 0.511047V13.3734H1.14355V0.511047H4.48013Z" fill="#231F20"/>
<path d="M7.36133 13.3747V0.511047H10.5379L15.531 7.88194C15.4759 7.27863 15.4405 6.46547 15.4405 5.74937V0.511047H18.9121V13.3734H15.6713L10.6284 6.00249C10.6835 6.60581 10.6874 7.40454 10.6874 8.09966V13.3734H7.36133V13.3747Z" fill="#231F20"/>
<path d="M31.5023 0.511047V3.54728H25.1478V6.06807H29.6333L29.0838 9.1043H25.1426V13.3734H21.6709V0.511047H31.5023Z" fill="#231F20"/>
<path d="M58.6839 0.511047V3.54728H55.0535V13.3734H51.5819V3.54859H47.9502V0.511047H58.6472H58.6839Z" fill="#231F20"/>
<path d="M70.1073 0.511047V3.4017H63.8893V5.42541H68.1505L67.6009 8.31606H63.8893V10.4854H70.2437V13.376H60.4229V0.511047H70.1073Z" fill="#231F20"/>
<path d="M78.3452 0.230408C79.5912 0.246146 80.8359 0.339266 82.0713 0.507144L81.5218 3.3532C80.6575 3.23254 79.784 3.1827 78.9118 3.20368C76.8737 3.20368 74.8539 4.32506 74.8539 7.11078C74.8539 9.60666 76.8737 10.6323 78.8751 10.6323C79.7879 10.652 80.7008 10.5772 81.5979 10.4093L82.1474 13.3459C80.9093 13.5465 79.6568 13.6384 78.4029 13.6226C74.8762 13.6226 71.373 11.6986 71.373 7.10947C71.3875 2.26855 74.8736 0.230408 78.3452 0.230408Z" fill="#231F20"/>
<path d="M95.9871 0.511047V13.3734H92.5286V8.4682H87.7454V13.3747H84.418V0.511047H87.7454V5.42673H92.5286V0.511047H96.0002H95.9871Z" fill="#231F20"/>
<path d="M7.07973 16.2968C8.52637 16.2863 10.2051 16.3794 11.6387 16.5736L11.1704 19.6006C9.88513 19.396 8.82016 19.2911 7.5191 19.2871C5.44555 19.2871 3.46642 20.1672 3.46642 22.8086C3.46642 25.9852 5.76294 26.5898 7.23319 26.5898C7.5191 26.6003 7.80502 26.5702 8.08176 26.4993V23.631L11.4105 23.0828V29.2326C9.98874 29.4202 8.55522 29.5133 7.1217 29.5093C3.49003 29.5093 3.31135e-06 27.4712 3.31135e-06 22.8139C-0.00393133 18.0215 3.49921 16.2968 7.07973 16.2968Z" fill="#231F20"/>
<path d="M14.1553 29.268V16.4057H19.5654C22.1701 16.4057 24.8352 17.3133 24.8352 20.7259C24.8352 22.8546 23.7912 24.0022 22.38 24.5753L25.9199 29.2497H22.0796L19.0028 25.079H17.4774V29.268H14.1553ZM17.4827 22.3339H19.7162C20.6881 22.3339 21.3504 21.808 21.3504 20.8177C21.3504 19.8275 20.6881 19.3016 19.7162 19.3016H17.4787V22.3378L17.4827 22.3339Z" fill="#231F20"/>
<path d="M55.0717 16.4057V24.3524C55.0717 28.2241 52.1351 29.5264 49.2891 29.5264C46.443 29.5264 43.5117 28.2057 43.5117 24.3524V16.4057H46.8391V24.1491C46.8391 25.8738 47.7742 26.4771 49.2261 26.4771C50.678 26.4771 51.6131 25.8738 51.6131 24.1491V16.4057H55.0848H55.0717Z" fill="#231F20"/>
<path d="M62.9406 16.4057C66.1172 16.4057 68.541 17.4366 68.541 20.8125C68.541 24.1885 66.1172 25.2193 62.9406 25.2193H61.2842V29.2628H57.8125V16.4044H62.9367H62.9406V16.4057ZM63.1046 19.2964H61.2894V22.3326H63.1046C64.1355 22.3326 65.0522 21.9693 65.0522 20.8165C65.0522 19.6636 64.1355 19.2964 63.1098 19.2964H63.1046Z" fill="#231F20"/>
</svg>
